<svg width="210" height="38" viewBox="0 0 210 38" fill="none" xmlns="http://www.w3.org/2000/svg">
<path d="M18.8071 21.0698C19.673 21.0698 20.106 21.4914 20.106 22.3345C20.106 23.3826 18.847 24.6758 16.3291 26.2139C13.8226 27.7406 11.3958 28.5039 9.04883 28.5039C6.97526 28.5039 5.06689 27.826 3.32373 26.4702C1.58057 25.1144 0.708984 23.1377 0.708984 20.54C0.708984 17.8968 1.62044 14.9631 3.44336 11.7388C5.26628 8.51449 7.52214 5.88835 10.2109 3.86035C12.9111 1.83236 15.543 0.818359 18.1064 0.818359C19.6331 0.818359 20.8522 1.27409 21.7637 2.18555C22.6751 3.09701 23.1309 4.16227 23.1309 5.38135C23.1309 6.70296 23.0283 7.6543 22.8232 8.23535C22.6182 8.80501 22.1795 9.29492 21.5073 9.70508C20.8351 10.1152 20.2882 10.3203 19.8667 10.3203C19.4338 10.3203 19.0578 10.1665 18.7388 9.85889C18.4198 9.55127 18.2603 9.13542 18.2603 8.61133C18.2603 8.24674 18.3571 7.71696 18.5508 7.02197C18.7331 6.32699 18.8242 5.74593 18.8242 5.27881C18.8242 4.49268 18.5565 4.09961 18.021 4.09961C16.3804 4.09961 14.5404 4.97689 12.501 6.73145C10.4616 8.486 8.71273 10.6678 7.25439 13.2769C5.80745 15.8745 5.08398 18.1702 5.08398 20.1641C5.08398 21.4857 5.46566 22.6022 6.229 23.5137C6.99235 24.4251 8.10889 24.8809 9.57861 24.8809C10.4445 24.8809 11.5326 24.6473 12.8428 24.1802C14.1644 23.7131 15.3835 23.0807 16.5 22.2832C17.6279 21.4743 18.397 21.0698 18.8071 21.0698ZM38.9023 19.5732C38.248 21.8584 37.0029 23.7871 35.167 25.3594C33.3408 26.9219 31.5146 27.7031 29.6885 27.7031C28.2432 27.7031 27.0518 27.1758 26.1143 26.1211C25.1768 25.0566 24.708 23.7529 24.708 22.21C24.708 19.6904 25.5674 17.21 27.2861 14.7686C29.0049 12.3271 31.0898 11.1064 33.541 11.1064C35.2109 11.1064 36.5635 11.7266 37.5986 12.9668C38.6338 14.1973 39.1514 15.667 39.1514 17.376C39.1514 18.1182 39.0684 18.8457 38.9023 19.5586V19.5732ZM31.2852 14.9443C30.6016 15.5498 29.9326 16.5166 29.2783 17.8447C28.624 19.1729 28.2969 20.5059 28.2969 21.8438C28.2969 22.6543 28.4434 23.3232 28.7363 23.8506C29.0391 24.3779 29.4346 24.6416 29.9229 24.6416C31.1338 24.6416 32.3936 23.9238 33.7021 22.4883C35.0107 21.0527 35.665 19.4414 35.665 17.6543C35.665 16.6484 35.4502 15.8232 35.0205 15.1787C34.6006 14.5244 34.0098 14.1973 33.248 14.1973C32.5254 14.1973 31.876 14.4463 31.2998 14.9443H31.2852ZM52.3203 22.1074C49.791 25.6914 47.2471 27.4834 44.6885 27.4834C43.6533 27.4834 42.8184 27.0781 42.1836 26.2676C41.5488 25.4473 41.2314 24.4072 41.2314 23.1475C41.2314 20.5986 42.2715 18.0645 44.3516 15.5449C46.4414 13.0254 48.5557 11.7656 50.6943 11.7656C51.9248 11.7656 52.7988 12.0879 53.3164 12.7324C54.0488 9.5293 54.4834 7.52734 54.6201 6.72656C54.9131 5.24219 55.1572 4.25586 55.3525 3.76758C55.5479 3.2793 55.8457 2.90332 56.2461 2.63965C56.6465 2.36621 56.9932 2.22949 57.2861 2.22949C57.7842 2.22949 58.165 2.43457 58.4287 2.84473C58.6924 3.25488 58.8242 3.77246 58.8242 4.39746C58.8242 4.6709 58.6094 5.45703 58.1797 6.75586C57.4766 8.86523 56.8223 11.4141 56.2168 14.4023C55.6211 17.3906 55.3232 19.7686 55.3232 21.5361C55.3232 23.2256 55.6943 24.0703 56.4365 24.0703C56.8174 24.0703 57.2227 23.9678 57.6523 23.7627C58.082 23.5674 58.3848 23.4697 58.5605 23.4697C59.0391 23.4697 59.2783 23.748 59.2783 24.3047C59.2783 24.9785 58.79 25.6523 57.8135 26.3262C56.8467 26.9902 55.9287 27.3223 55.0596 27.3223C54.1221 27.3223 53.3994 26.8193 52.8916 25.8135C52.3838 24.8076 52.1934 23.5723 52.3203 22.1074ZM50.6943 14.5928C49.415 14.5928 48.0771 15.5693 46.6807 17.5225C45.2939 19.4756 44.6006 21.2627 44.6006 22.8838C44.6006 23.8311 44.9521 24.3047 45.6553 24.3047C46.8467 24.3047 48.2676 23.2451 49.918 21.126C51.5684 19.0068 52.3936 17.332 52.3936 16.1016C52.3936 15.7305 52.2373 15.3887 51.9248 15.0762C51.6123 14.7539 51.2021 14.5928 50.6943 14.5928ZM69.8545 5.23242C69.8545 5.92578 69.542 6.53613 68.917 7.06348C68.292 7.58105 67.75 7.83984 67.291 7.83984C66.7051 7.83984 66.1826 7.5957 65.7236 7.10742C65.2744 6.61914 65.0498 6.13086 65.0498 5.64258C65.0498 4.93945 65.2744 4.37305 65.7236 3.94336C66.1729 3.50391 66.8174 3.28418 67.6572 3.28418C68.3115 3.28418 68.8389 3.47949 69.2393 3.87012C69.6494 4.25098 69.8545 4.70508 69.8545 5.23242ZM62.7793 17.2734V17.2881C63.0918 15.5107 63.248 14.4951 63.248 14.2412C63.248 13.5186 63.4043 12.9131 63.7168 12.4248C64.0391 11.9365 64.4834 11.6924 65.0498 11.6924C65.7139 11.6924 66.2314 11.8486 66.6025 12.1611C66.9736 12.4736 67.1592 12.8252 67.1592 13.2158C67.1592 13.6064 66.9785 14.4121 66.6172 15.6328L66.5293 15.9551C65.9922 17.8398 65.6699 19.3779 65.5625 20.5693C65.4551 21.7607 65.4014 22.7227 65.4014 23.4551C65.4014 24.0508 65.5039 24.8467 65.709 25.8428C65.7383 26.0186 65.7529 26.165 65.7529 26.2822C65.7529 26.5068 65.5381 26.8096 65.1084 27.1904C64.6885 27.5713 64.2344 27.7617 63.7461 27.7617C62.457 27.7617 61.8125 26.7852 61.8125 24.832C61.8125 23.1719 62.0469 21.1504 62.5156 18.7676C62.6133 18.2402 62.7012 17.7422 62.7793 17.2734ZM82.6572 24.8613C82.1885 23.9824 81.8467 22.3418 81.6318 19.9395C81.417 17.4395 80.9385 16.1895 80.1963 16.1895C79.4932 16.1895 78.2773 17.4932 76.5488 20.1006C74.8203 22.6982 73.7559 24.6172 73.3555 25.8574C73.2676 26.2285 73.1016 26.5361 72.8574 26.7803C72.623 27.0244 72.3887 27.1465 72.1543 27.1465C70.6699 27.1465 69.9277 26.4678 69.9277 25.1104C69.9277 24.6514 70.0742 23.6064 70.3672 21.9756C70.748 19.8662 70.9385 17.2881 70.9385 14.2412C70.9385 13.7822 71.1387 13.2939 71.5391 12.7764C71.9395 12.249 72.3643 11.9854 72.8135 11.9854C73.3799 11.9854 73.8145 12.127 74.1172 12.4102C74.4199 12.6934 74.5713 13.4453 74.5713 14.666C74.5713 15.5938 74.293 17.3906 73.7363 20.0566C75.8555 15.0957 78.2188 12.6152 80.8262 12.6152C83.0918 12.6152 84.4199 14.3975 84.8105 17.9619C85.2012 21.5947 85.6504 23.4111 86.1582 23.4111C86.3828 23.4111 86.6416 23.3623 86.9346 23.2646C87.2861 23.1475 87.5645 23.0889 87.7695 23.0889C88.2383 23.0889 88.4727 23.3623 88.4727 23.9092C88.4727 24.4072 88.1504 24.9395 87.5059 25.5059C86.8613 26.0625 86.0508 26.3408 85.0742 26.3408C83.9414 26.3408 83.1309 25.8477 82.6426 24.8613H82.6572ZM100.221 22.5176C99.1367 23.7383 97.8721 24.7441 96.4268 25.5352C94.9912 26.3164 93.751 26.707 92.7061 26.707C91.6709 26.707 90.8652 26.4043 90.2891 25.7988C89.7227 25.1934 89.4395 24.3584 89.4395 23.2939C89.4395 21.7803 90.0107 20.0957 91.1533 18.2402C92.3057 16.3848 93.8975 14.7734 95.9287 13.4062C97.9697 12.0293 99.8057 11.3408 101.437 11.3408C102.335 11.3408 103.111 11.585 103.766 12.0732C103.922 12.1904 104.059 12.2881 104.176 12.3662C104.41 12.5322 104.625 12.8398 104.82 13.2891C105.025 13.7285 105.128 14.085 105.128 14.3584C105.128 14.5342 104.942 15.125 104.571 16.1309C104.19 17.1758 103.922 18.1914 103.766 19.1777C103.619 20.1543 103.321 22.6006 102.872 26.5166C102.472 29.9248 101.52 32.415 100.016 33.9873C98.5117 35.5596 96.8418 36.3457 95.0059 36.3457C93.082 36.3457 91.2119 35.6963 89.3955 34.3975C87.5889 33.1084 86.6855 32.0439 86.6855 31.2041C86.6855 30.4619 87.0469 30.0908 87.7695 30.0908C88.0527 30.0908 88.6289 30.374 89.498 30.9404C91.7246 32.4053 93.6338 33.1377 95.2256 33.1377C96.4365 33.1377 97.4521 32.376 98.2725 30.8525C99.0928 29.3389 99.7422 26.5605 100.221 22.5176ZM100.572 14.373C99.8496 14.373 98.9023 14.8076 97.7305 15.6768C96.5586 16.5361 95.4746 17.6982 94.4785 19.1631C93.4824 20.6279 92.9844 21.8438 92.9844 22.8105C92.9844 23.3184 93.1699 23.5723 93.541 23.5723C94.8008 23.5723 96.0508 23.0645 97.291 22.0488C98.5312 21.0234 99.5322 19.8467 100.294 18.5186C101.065 17.1904 101.451 16.1846 101.451 15.501C101.451 15.1592 101.363 14.8857 101.188 14.6807C101.012 14.4756 100.807 14.373 100.572 14.373Z" fill="black"/>
<path d="M112.604 21.48C112.41 21.9585 111.812 23.0181 110.809 24.6587C109.818 26.2879 109.129 27.1937 108.741 27.376C108.354 27.5697 108.012 27.6665 107.716 27.6665C107.306 27.6665 106.81 27.4443 106.229 27C105.659 26.5443 105.375 26.0771 105.375 25.5986C105.375 25.1543 106.804 22.756 109.664 18.4038C111.225 16.0226 112.649 13.6642 113.937 11.3286C116.523 6.61182 118.101 3.87174 118.67 3.1084C119.251 2.33366 119.844 1.94629 120.448 1.94629C121.416 1.94629 122.117 2.19694 122.55 2.69824C122.766 2.85775 122.875 3.23942 122.875 3.84326C122.875 4.2876 122.835 4.64648 122.755 4.91992C124.84 11.2773 126.469 15.7777 127.643 18.4209C128.827 21.0527 130.012 22.9611 131.197 24.146C131.79 24.7384 132.149 25.1372 132.274 25.3423C132.411 25.5474 132.479 25.8208 132.479 26.1626C132.479 26.7892 132.251 27.3133 131.795 27.7349C131.34 28.1678 130.799 28.3843 130.172 28.3843C129.306 28.3843 128.423 27.883 127.523 26.8804C126.634 25.8778 125.791 24.4992 124.994 22.7446C124.208 20.9901 123.814 20.0046 123.814 19.7881C123.814 19.7425 123.786 19.7197 123.729 19.7197C123.114 19.7197 121.741 19.9362 119.61 20.3691C117.491 20.8021 115.788 21.2236 114.5 21.6338C114.17 21.7363 113.88 21.7876 113.629 21.7876C113.185 21.7876 112.843 21.6851 112.604 21.48ZM122.447 16.2505C122.174 15.5783 121.365 13.1857 120.021 9.07275C119.895 8.69678 119.81 8.45752 119.764 8.35498L114.911 17.5835C115.628 17.4582 116.363 17.3442 117.115 17.2417C117.617 17.1847 118.893 16.9455 120.943 16.5239C121.445 16.4214 121.946 16.3302 122.447 16.2505ZM139.854 2.2002C140.909 2.2002 141.437 2.77637 141.437 3.92871C141.437 4.45605 141.363 5.02734 141.217 5.64258C141.07 6.24805 140.67 7.75684 140.016 10.1689C139.537 11.917 139.171 13.8262 138.917 15.8965C138.673 17.957 138.551 19.5684 138.551 20.7305C138.551 21.9707 138.644 23.4453 138.829 25.1543C138.878 25.6133 138.902 25.9014 138.902 26.0186C138.902 26.6045 138.688 27.1074 138.258 27.5273C137.828 27.9473 137.359 28.1572 136.852 28.1572C136.158 28.1572 135.67 27.8301 135.387 27.1758C135.104 26.5215 134.962 25.3984 134.962 23.8066C134.962 20.3789 135.362 16.3408 136.163 11.6924C136.974 7.04395 137.633 4.2998 138.141 3.45996C138.658 2.62012 139.229 2.2002 139.854 2.2002ZM146.417 25.96C146.251 26.6436 146.085 27.6787 145.919 29.0654L145.216 34.8223C145.099 35.7598 144.869 36.4092 144.527 36.7705C144.195 37.1318 143.785 37.3125 143.297 37.3125C142.857 37.3125 142.438 37.1465 142.037 36.8145C141.646 36.4922 141.451 36.1309 141.451 35.7305C141.451 34.9395 141.573 34.0264 141.817 32.9912C143.272 27.1807 144.068 21.1504 144.205 14.9004V14.6074C144.205 13.2988 144.239 12.4297 144.308 12C144.386 11.5605 144.596 11.1748 144.938 10.8428C145.289 10.5107 145.782 10.3447 146.417 10.3447C147.481 10.3447 148.014 11.1602 148.014 12.791C148.014 13.4551 147.892 14.583 147.647 16.1748L147.501 17.1855C148.614 15.3301 149.938 13.792 151.471 12.5713C153.004 11.3408 154.376 10.7256 155.587 10.7256C156.681 10.7256 157.608 11.1162 158.37 11.8975C159.142 12.6787 159.527 13.6602 159.527 14.8418C159.527 17.9961 158.302 20.8672 155.851 23.4551C153.409 26.0332 150.992 27.3223 148.6 27.3223C147.467 27.3223 146.739 26.8682 146.417 25.96ZM155.016 14.0508C153.824 14.0508 152.276 15.2129 150.372 17.5371C148.478 19.8613 147.53 21.6875 147.53 23.0156C147.53 23.3574 147.696 23.665 148.028 23.9385C148.37 24.2021 148.766 24.334 149.215 24.334C150.455 24.334 151.876 23.3623 153.478 21.4189C155.089 19.4658 155.895 17.5811 155.895 15.7646C155.895 15.1592 155.802 14.7246 155.616 14.4609C155.431 14.1875 155.23 14.0508 155.016 14.0508ZM165.68 20.2471C167.301 17.21 168.697 15.1445 169.869 14.0508C171.051 12.9473 172.242 12.3955 173.443 12.3955C174.273 12.3955 174.962 12.6836 175.509 13.2598C176.065 13.8262 176.471 15.3105 176.725 17.7129C176.832 18.8555 176.969 19.7783 177.135 20.4814C177.301 21.1846 177.486 21.8096 177.691 22.3564C177.896 22.8936 178.189 23.4014 178.57 23.8799C178.863 24.2607 179.01 24.627 179.01 24.9785C179.01 25.3301 178.839 25.6523 178.497 25.9453C178.165 26.2383 177.779 26.3848 177.34 26.3848C176.471 26.3848 175.699 25.9111 175.025 24.9639C174.352 24.0166 173.951 22.708 173.824 21.0381C173.668 18.9971 173.497 17.6934 173.312 17.127C173.136 16.5605 172.838 16.2773 172.418 16.2773C171.852 16.2773 170.748 17.4102 169.107 19.6758C167.477 21.9316 166.3 23.7383 165.577 25.0957C165.128 26.1211 164.781 26.7852 164.537 27.0879C164.293 27.3906 163.99 27.542 163.629 27.542C163.033 27.542 162.55 27.3955 162.179 27.1025C161.808 26.8096 161.622 26.3945 161.622 25.8574C161.622 25.5938 161.754 24.7686 162.018 23.3818C163.014 18.1377 163.829 12.5566 164.464 6.63867C164.62 5.21289 164.918 4.23145 165.357 3.69434C165.807 3.14746 166.217 2.87402 166.588 2.87402C167.105 2.87402 167.555 3.07422 167.936 3.47461C168.316 3.875 168.507 4.43164 168.507 5.14453C168.507 6.23828 168.375 7.49805 168.111 8.92383C167.848 10.3496 167.354 12.625 166.632 15.75C166.192 17.6348 165.875 19.1338 165.68 20.2471ZM191.109 22.0928C188.541 25.4814 186.061 27.1758 183.668 27.1758C182.789 27.1758 182.032 26.8291 181.397 26.1357C180.763 25.4424 180.445 24.5586 180.445 23.4844C180.445 20.8965 181.598 18.1426 183.902 15.2227C186.207 12.293 188.531 10.8281 190.875 10.8281C192.066 10.8281 192.848 11.4287 193.219 12.6299C194.342 12.6299 194.903 13.0596 194.903 13.9189C194.903 14.3291 194.796 15.0713 194.581 16.1455C194.19 18.1572 193.995 19.7637 193.995 20.9648C193.995 22.2148 194.078 23.0938 194.244 23.6016C194.42 24.1094 194.547 24.4414 194.625 24.5977C194.703 24.7539 194.938 24.9199 195.328 25.0957C195.719 25.2812 195.914 25.54 195.914 25.8721C195.914 26.3701 195.66 26.7852 195.152 27.1172C194.654 27.4492 194.132 27.6152 193.585 27.6152C191.749 27.6152 190.924 25.7744 191.109 22.0928ZM190.23 13.9629C189.244 13.9629 187.96 15.0566 186.378 17.2441C184.806 19.4219 184.02 21.2725 184.02 22.7959C184.02 23.5967 184.186 23.9971 184.518 23.9971C185.67 23.9971 187.086 22.9766 188.766 20.9355C190.455 18.8848 191.3 17.0928 191.3 15.5596C191.3 15.0713 191.188 14.6855 190.963 14.4023C190.748 14.1094 190.504 13.9629 190.23 13.9629ZM205.523 23.2793C205.484 22.752 204.645 22.1074 203.004 21.3457C200.992 20.3789 199.708 19.5488 199.151 18.8555C198.595 18.1523 198.316 17.3906 198.316 16.5703C198.316 14.8418 199.283 13.333 201.217 12.0439C203.16 10.7451 204.972 10.0957 206.651 10.0957C208.302 10.0957 209.127 10.8135 209.127 12.249C209.127 12.6299 208.937 12.9717 208.556 13.2744C208.185 13.5771 207.867 13.7285 207.604 13.7285C207.496 13.7285 207.306 13.6602 207.032 13.5234C206.759 13.3867 206.549 13.3184 206.402 13.3184C205.533 13.3184 204.576 13.6113 203.531 14.1973C202.486 14.7832 201.964 15.4668 201.964 16.248C201.964 16.6289 202.149 17 202.521 17.3613C202.892 17.7129 203.648 18.1572 204.791 18.6943C206.48 19.4951 207.594 20.2178 208.131 20.8623C208.668 21.5068 208.937 22.2197 208.937 23.001C208.937 24.4268 207.97 25.6182 206.036 26.5752C204.112 27.5225 201.949 27.9961 199.547 27.9961C197.779 27.9961 196.896 27.3564 196.896 26.0771C196.896 25.6084 197.081 25.208 197.452 24.876C197.823 24.5439 198.238 24.3779 198.697 24.3779C198.883 24.3779 199.171 24.4463 199.562 24.583C199.952 24.7295 200.313 24.8027 200.646 24.8027C201.563 24.8027 202.525 24.6562 203.531 24.3633C204.537 24.0703 205.201 23.709 205.523 23.2793Z" fill="url(#paint0_linear)"/>
<defs>
<linearGradient id="paint0_linear" x1="107" y1="-17" x2="107" y2="31" gradientUnits="userSpaceOnUse">
<stop stop-color="#1B2768"/>
<stop offset="1" stop-color="#2C7DE4"/>
</linearGradient>
</defs>
</svg>
