<svg width="339" height="266" viewBox="0 0 339 266" fill="none" xmlns="http://www.w3.org/2000/svg">
<g clip-path="url(#clip0)">
<path d="M216.028 199.412V263.534H67.6248C50.7162 263.534 36.9593 249.151 36.9593 231.473C36.9593 213.795 50.7162 199.412 67.6248 199.412H216.028Z" fill="#F2F2F2"/>
<path d="M219.673 263.041C219.673 263.695 219.433 264.322 219.005 264.784C218.578 265.247 217.999 265.507 217.395 265.507H64.9815C56.7036 265.507 48.7648 261.947 42.9115 255.611C37.0581 249.274 33.7698 240.68 33.7698 231.72C33.7698 222.759 37.0581 214.165 42.9115 207.828C48.7648 201.492 56.7036 197.932 64.9815 197.932H217.395C217.999 197.932 218.578 198.192 219.006 198.655C219.433 199.117 219.673 199.744 219.673 200.398C219.673 201.053 219.433 201.68 219.006 202.142C218.578 202.605 217.999 202.865 217.395 202.865H64.9815C57.912 202.865 51.1322 205.905 46.1333 211.316C41.1345 216.727 38.3262 224.067 38.3262 231.72C38.3262 239.372 41.1345 246.712 46.1333 252.123C51.1322 257.534 57.912 260.574 64.9815 260.574H217.395C217.999 260.575 218.578 260.835 219.005 261.297C219.433 261.759 219.673 262.387 219.673 263.041Z" fill="#E57851"/>
<path d="M216.028 214.209H56.552C56.4312 214.209 56.3153 214.157 56.2298 214.065C56.1444 213.972 56.0964 213.847 56.0964 213.716C56.0964 213.585 56.1444 213.46 56.2298 213.367C56.3153 213.275 56.4312 213.223 56.552 213.223H216.028C216.149 213.223 216.265 213.275 216.35 213.367C216.435 213.46 216.484 213.585 216.484 213.716C216.484 213.847 216.435 213.972 216.35 214.065C216.265 214.157 216.149 214.209 216.028 214.209Z" fill="#CCCCCC"/>
<path d="M216.028 226.047H56.552C56.4312 226.047 56.3153 225.995 56.2298 225.903C56.1444 225.81 56.0964 225.685 56.0964 225.554C56.0964 225.423 56.1444 225.298 56.2298 225.205C56.3153 225.113 56.4312 225.061 56.552 225.061H216.028C216.149 225.061 216.265 225.113 216.35 225.205C216.435 225.298 216.484 225.423 216.484 225.554C216.484 225.685 216.435 225.81 216.35 225.903C216.265 225.995 216.149 226.047 216.028 226.047Z" fill="#CCCCCC"/>
<path d="M216.028 237.885H56.552C56.4312 237.885 56.3153 237.833 56.2298 237.741C56.1444 237.648 56.0964 237.523 56.0964 237.392C56.0964 237.261 56.1444 237.136 56.2298 237.043C56.3153 236.951 56.4312 236.899 56.552 236.899H216.028C216.149 236.899 216.265 236.951 216.35 237.043C216.435 237.136 216.484 237.261 216.484 237.392C216.484 237.523 216.435 237.648 216.35 237.741C216.265 237.833 216.149 237.885 216.028 237.885Z" fill="#CCCCCC"/>
<path d="M216.028 249.723H56.552C56.4312 249.723 56.3153 249.671 56.2298 249.578C56.1444 249.486 56.0964 249.361 56.0964 249.23C56.0964 249.099 56.1444 248.973 56.2298 248.881C56.3153 248.788 56.4312 248.736 56.552 248.736H216.028C216.149 248.736 216.265 248.788 216.35 248.881C216.435 248.973 216.484 249.099 216.484 249.23C216.484 249.361 216.435 249.486 216.35 249.578C216.265 249.671 216.149 249.723 216.028 249.723Z" fill="#CCCCCC"/>
<path d="M330.722 211.482L293.557 261.412L177.999 160.618C164.832 149.134 162.456 128.59 172.702 114.825C182.948 101.059 201.997 99.2032 215.163 110.687L330.722 211.482Z" fill="#F2F2F2"/>
<path d="M296.681 263.504C296.302 264.013 295.752 264.339 295.151 264.409C294.55 264.478 293.949 264.287 293.478 263.877L174.797 160.359C168.351 154.737 164.232 146.573 163.347 137.663C162.462 128.754 164.882 119.828 170.076 112.851C175.269 105.873 182.811 101.414 191.041 100.456C199.272 99.4975 207.517 102.118 213.962 107.74L332.644 211.258C332.877 211.461 333.071 211.712 333.214 211.997C333.358 212.281 333.448 212.593 333.48 212.915C333.513 213.237 333.486 213.563 333.401 213.874C333.317 214.185 333.177 214.475 332.989 214.727C332.802 214.979 332.57 215.189 332.307 215.344C332.044 215.5 331.756 215.597 331.458 215.632C331.161 215.666 330.86 215.637 330.573 215.546C330.286 215.454 330.018 215.303 329.785 215.099L211.104 111.581C208.378 109.201 205.246 107.427 201.887 106.358C198.528 105.289 195.007 104.948 191.526 105.352C188.044 105.757 184.671 106.9 181.598 108.716C178.525 110.533 175.812 112.987 173.616 115.938C171.419 118.889 169.781 122.28 168.795 125.917C167.809 129.554 167.494 133.366 167.87 137.134C168.245 140.902 169.302 144.554 170.981 147.88C172.66 151.206 174.928 154.141 177.656 156.518L296.337 260.036C296.807 260.447 297.108 261.043 297.172 261.693C297.237 262.343 297.06 262.995 296.681 263.504Z" fill="#CCCCCC"/>
<path d="M322.145 223.005L197.965 114.689C197.918 114.649 197.879 114.598 197.851 114.542C197.822 114.485 197.804 114.422 197.797 114.358C197.791 114.294 197.796 114.228 197.813 114.166C197.83 114.104 197.858 114.046 197.896 113.996C197.933 113.945 197.98 113.903 198.032 113.872C198.085 113.841 198.142 113.822 198.202 113.815C198.261 113.808 198.321 113.814 198.379 113.832C198.436 113.85 198.49 113.88 198.536 113.921L322.717 222.236C322.764 222.277 322.802 222.327 322.831 222.384C322.86 222.441 322.878 222.503 322.885 222.568C322.891 222.632 322.886 222.697 322.869 222.76C322.852 222.822 322.824 222.88 322.786 222.93C322.749 222.981 322.702 223.023 322.65 223.054C322.597 223.085 322.54 223.104 322.48 223.111C322.42 223.118 322.36 223.112 322.303 223.094C322.245 223.076 322.192 223.045 322.145 223.005V223.005Z" fill="#CCCCCC"/>
<path d="M315.284 232.222L191.103 123.907C191.009 123.825 190.949 123.706 190.937 123.576C190.924 123.446 190.959 123.316 191.035 123.214C191.111 123.112 191.221 123.047 191.341 123.033C191.461 123.019 191.581 123.057 191.675 123.139L315.856 231.454C315.902 231.495 315.941 231.545 315.97 231.602C315.999 231.659 316.017 231.721 316.023 231.786C316.03 231.85 316.024 231.915 316.008 231.978C315.991 232.04 315.963 232.098 315.925 232.148C315.888 232.199 315.841 232.241 315.789 232.272C315.736 232.303 315.678 232.322 315.619 232.329C315.559 232.336 315.499 232.33 315.442 232.312C315.384 232.294 315.331 232.263 315.284 232.222Z" fill="#CCCCCC"/>
<path d="M308.423 241.44L184.242 133.125C184.148 133.043 184.088 132.924 184.075 132.794C184.062 132.664 184.097 132.533 184.173 132.432C184.249 132.33 184.359 132.265 184.479 132.251C184.6 132.237 184.72 132.275 184.814 132.357L308.995 240.672C309.041 240.713 309.08 240.763 309.109 240.82C309.137 240.877 309.155 240.939 309.162 241.004C309.168 241.068 309.163 241.133 309.146 241.195C309.129 241.257 309.101 241.315 309.064 241.366C309.026 241.416 308.98 241.458 308.927 241.489C308.875 241.52 308.817 241.54 308.758 241.547C308.698 241.554 308.638 241.548 308.58 241.53C308.523 241.511 308.47 241.481 308.423 241.44V241.44Z" fill="#CCCCCC"/>
<path d="M301.562 250.658L177.381 142.343C177.335 142.302 177.296 142.252 177.267 142.195C177.238 142.139 177.22 142.076 177.214 142.012C177.208 141.947 177.213 141.882 177.23 141.82C177.247 141.758 177.275 141.7 177.312 141.65C177.35 141.599 177.396 141.557 177.449 141.526C177.501 141.495 177.559 141.476 177.618 141.469C177.678 141.462 177.738 141.467 177.795 141.486C177.853 141.504 177.906 141.534 177.953 141.575L302.134 249.89C302.18 249.931 302.219 249.981 302.248 250.038C302.277 250.095 302.295 250.157 302.301 250.222C302.308 250.286 302.302 250.351 302.285 250.413C302.268 250.476 302.24 250.534 302.203 250.584C302.165 250.635 302.119 250.677 302.066 250.708C302.014 250.739 301.956 250.758 301.897 250.765C301.837 250.772 301.777 250.766 301.719 250.748C301.662 250.729 301.608 250.699 301.562 250.658Z" fill="#CCCCCC"/>
<path d="M338.544 266H0.455645C0.334801 266 0.218905 265.948 0.133455 265.856C0.048005 265.763 0 265.638 0 265.507C0 265.376 0.048005 265.251 0.133455 265.158C0.218905 265.066 0.334801 265.014 0.455645 265.014H338.544C338.665 265.014 338.781 265.066 338.867 265.158C338.952 265.251 339 265.376 339 265.507C339 265.638 338.952 265.763 338.867 265.856C338.781 265.948 338.665 266 338.544 266Z" fill="#CCCCCC"/>
<path d="M154.045 192.672L148.836 192.672L146.359 170.922L154.047 170.923L154.045 192.672Z" fill="#FFB8B8"/>
<path d="M145.115 191.061H155.161V197.908H138.79C138.79 197.009 138.953 196.118 139.271 195.288C139.589 194.457 140.055 193.702 140.642 193.066C141.23 192.43 141.927 191.926 142.694 191.582C143.462 191.238 144.284 191.061 145.115 191.061Z" fill="#2F2E41"/>
<path d="M100.828 192.672L95.619 192.672L93.1416 170.922L100.83 170.923L100.828 192.672Z" fill="#FFB8B8"/>
<path d="M91.8981 191.061H101.944V197.908H85.5729C85.5729 197.009 85.7365 196.118 86.0543 195.288C86.3722 194.457 86.8381 193.702 87.4255 193.066C88.0128 192.43 88.7101 191.926 89.4775 191.582C90.245 191.238 91.0675 191.061 91.8981 191.061Z" fill="#2F2E41"/>
<path d="M118.227 31.3373V28.8711C118.227 24.6522 119.775 20.6062 122.531 17.623C125.286 14.6399 129.024 12.9639 132.921 12.9639H132.921C136.818 12.9639 140.556 14.6399 143.312 17.623C146.068 20.6062 147.616 24.6522 147.616 28.8711V31.3373C147.616 34.3788 146.5 37.2957 144.513 39.4464C142.526 41.5971 139.832 42.8053 137.022 42.8053H128.82C127.429 42.8053 126.052 42.5087 124.766 41.9323C123.481 41.356 122.313 40.5113 121.329 39.4464C120.346 38.3815 119.565 37.1173 119.033 35.7259C118.501 34.3346 118.227 32.8433 118.227 31.3373Z" fill="#2F2E41"/>
<path d="M132.921 43.6539C139.102 43.6539 144.112 38.23 144.112 31.5393C144.112 24.8486 139.102 19.4247 132.921 19.4247C126.741 19.4247 121.73 24.8486 121.73 31.5393C121.73 38.23 126.741 43.6539 132.921 43.6539Z" fill="#FFB8B8"/>
<path d="M72.0487 73.1756C72.5028 72.7113 73.0455 72.3606 73.6384 72.1479C74.2314 71.9353 74.8601 71.866 75.4805 71.9449C76.1009 72.0237 76.6977 72.2489 77.229 72.6045C77.7602 72.9601 78.213 73.4374 78.5554 74.003L88.1489 72.0385L90.6736 78.0584L77.0898 80.6265C76.174 81.1863 75.1005 81.3629 74.0724 81.123C73.0444 80.8831 72.1334 80.2433 71.512 79.3249C70.8907 78.4065 70.6021 77.2732 70.701 76.1398C70.7999 75.0065 71.2794 73.9518 72.0487 73.1756V73.1756Z" fill="#FFB8B8"/>
<path d="M124.196 51.2833L124.322 51.4891L108.59 62.7076L82.0452 71.8836C81.6933 72.006 81.3915 72.2566 81.1911 72.5928C80.9907 72.929 80.9042 73.33 80.9462 73.7275L81.5253 79.1268C81.5509 79.3658 81.6225 79.5963 81.7353 79.8036C81.8481 80.0109 81.9996 80.1904 82.1802 80.3306C82.3609 80.4707 82.5665 80.5685 82.7841 80.6176C83.0017 80.6667 83.2263 80.6661 83.4436 80.6157L108.427 74.8187C109.636 74.5398 110.779 73.9949 111.785 73.2179L129.459 59.6059C130.1 59.1097 130.611 58.4425 130.943 57.6692C131.275 56.8958 131.416 56.0426 131.354 55.1926C131.289 54.3413 131.02 53.523 130.575 52.8181C130.129 52.1132 129.522 51.5461 128.812 51.1724C128.103 50.7987 127.316 50.6314 126.528 50.6869C125.741 50.7424 124.981 51.0189 124.322 51.4891L124.196 51.2833Z" fill="#CCCCCC"/>
<path d="M148.929 186.5C148.529 186.5 148.138 186.374 147.803 186.138C147.468 185.901 147.205 185.564 147.044 185.168L123.163 121.292C123.108 121.154 123.014 121.037 122.895 120.958C122.776 120.878 122.638 120.84 122.498 120.849C122.359 120.857 122.225 120.912 122.116 121.005C122.006 121.098 121.925 121.226 121.884 121.37L102.401 183.555C102.319 183.845 102.183 184.113 102.001 184.343C101.82 184.574 101.597 184.761 101.346 184.895C101.095 185.028 100.821 185.105 100.542 185.12C100.262 185.135 99.9831 185.088 99.7212 184.981L93.188 182.329C92.8334 182.187 92.5222 181.94 92.2892 181.618C92.0562 181.295 91.9104 180.909 91.868 180.502C88.9288 152.785 114.559 82.8248 114.818 82.1215L114.89 81.9267L138.254 87.5215L138.303 87.5788C147.624 98.587 155.286 168.018 156.728 181.825C156.781 182.324 156.677 182.827 156.431 183.253C156.184 183.678 155.812 184.001 155.374 184.166L149.607 186.374C149.389 186.457 149.16 186.5 148.929 186.5Z" fill="#2F2E41"/>
<path d="M128.798 89.7733C123.138 89.7733 116.827 88.5516 114.884 83.5088L114.839 83.393L114.9 83.2855C116.433 80.5621 118.46 75.9162 117.37 75.0442C115.225 73.3267 114.183 70.5014 114.276 66.6465C114.476 58.2782 119.744 50.8484 127.383 48.1585H127.383C129.515 47.4198 131.685 46.815 133.882 46.3471C135.483 45.9973 137.136 46.0358 138.722 46.4598C140.308 46.8837 141.788 47.6827 143.055 48.7993C144.338 49.9233 145.375 51.3408 146.091 52.9501C146.808 54.5595 147.187 56.3207 147.2 58.1072C147.28 67.0501 146.008 79.5058 139.494 88.0571C139.188 88.4539 138.763 88.7213 138.294 88.8124C135.16 89.426 131.983 89.7475 128.798 89.7733Z" fill="#CCCCCC"/>
<path d="M126.693 89.4385C127.001 88.2422 127.732 87.2259 128.729 86.6104C129.725 85.9949 130.906 85.83 132.014 86.1514C132.24 86.2199 132.461 86.3084 132.674 86.4159L139.958 79.2398L145.024 82.9343L134.607 92.9131C134.136 93.8312 133.396 94.5526 132.503 94.9625C131.61 95.3725 130.617 95.4474 129.68 95.1755C129.134 95.0138 128.624 94.7367 128.177 94.3601C127.731 93.9835 127.359 93.5149 127.081 92.9814C126.803 92.4479 126.626 91.8602 126.559 91.252C126.493 90.6439 126.538 90.0275 126.693 89.4385Z" fill="#FFB8B8"/>
<path d="M138.804 89.5296C138.331 89.5299 137.873 89.353 137.507 89.0289L134.635 86.4878C134.395 86.2759 134.203 86.0082 134.073 85.7046C133.943 85.4011 133.877 85.0695 133.882 84.7348C133.887 84.4001 133.962 84.0708 134.101 83.7718C134.24 83.4727 134.439 83.2116 134.685 83.0078L146.733 73.0049C146.875 72.8858 146.969 72.7105 146.993 72.5171C147.017 72.3236 146.97 72.1277 146.862 71.9717L139.425 61.3294C138.562 60.0971 138.128 58.5736 138.202 57.0286C138.276 55.4837 138.853 54.0169 139.83 52.8879C140.859 51.6848 142.268 50.9444 143.778 50.8137C145.288 50.683 146.788 51.1715 147.98 52.1822L148.027 52.2359L155.792 64.2723C156.632 64.9849 157.308 65.8981 157.768 66.9404C158.228 67.9828 158.459 69.1261 158.443 70.281C158.427 71.4359 158.165 72.5712 157.676 73.5983C157.188 74.6253 156.487 75.5163 155.628 76.2016L140.025 89.0944C139.671 89.3771 139.243 89.5296 138.804 89.5296Z" fill="#CCCCCC"/>
<path d="M123.008 28.1312V22.1205L132.921 17.4346L142.373 22.1205V28.1312C142.373 28.3928 142.277 28.6438 142.106 28.8288C141.935 29.0138 141.704 29.1177 141.462 29.1177H123.92C123.678 29.1177 123.446 29.0138 123.275 28.8288C123.104 28.6438 123.008 28.3928 123.008 28.1312Z" fill="#2F2E41"/>
<path d="M132.466 13.7613C131.009 8.71125 134.07 2.9236 138.595 0.924642C143.12 -1.07432 148.534 0.323017 152.353 3.6256C156.171 6.92818 158.54 11.8748 159.795 16.9882C161.051 22.1015 161.289 27.4335 161.521 32.7184C167.08 33.824 170.863 40.9627 168.937 46.7159C167.011 52.4691 159.882 55.3273 154.958 52.3203C150.035 49.3132 148.609 41.2299 152.162 36.4705C153.844 34.2185 154.783 31.4236 154.831 28.5285C154.88 25.6335 154.034 22.8037 152.429 20.4874C150.824 18.1711 148.551 16.5008 145.97 15.7408C143.389 14.9809 140.647 15.1749 138.18 16.292C135.439 17.5325 132.001 14.3095 132.466 13.7613Z" fill="#2F2E41"/>
<path d="M69.9936 49.8586C63.3369 49.8113 56.7634 48.2528 50.6978 45.2838C50.3368 45.1096 50.0303 44.8255 49.8158 44.4661C49.6012 44.1067 49.4879 43.6874 49.4895 43.2595V25.2966C49.4901 24.7081 49.7064 24.1439 50.0907 23.7278C50.4751 23.3117 50.9963 23.0776 51.5399 23.077H88.4472C88.9908 23.0776 89.512 23.3117 89.8964 23.7278C90.2808 24.1439 90.497 24.7081 90.4976 25.2966V43.2596C90.4992 43.6875 90.3859 44.1067 90.1713 44.4661C89.9568 44.8255 89.6503 45.1096 89.2893 45.2838C83.2237 48.2528 76.6502 49.8113 69.9936 49.8586Z" fill="#E57851"/>
<path d="M69.9885 35.3064C69.7149 35.3067 69.444 35.2477 69.1917 35.133L39.9248 21.7663C39.5473 21.5939 39.2263 21.3031 39.0029 20.9314C38.7796 20.5597 38.6642 20.124 38.6717 19.6807C38.6793 19.2373 38.8093 18.8066 39.045 18.4439C39.2808 18.0813 39.6115 17.8035 39.9945 17.6462L69.2619 5.62693C69.7333 5.43245 70.2545 5.43365 70.7251 5.6303L99.6003 17.6495C99.9811 17.8081 100.31 18.086 100.544 18.4478C100.778 18.8095 100.907 19.2386 100.914 19.6803C100.922 20.1219 100.808 20.5559 100.586 20.9267C100.364 21.2976 100.046 21.5885 99.6705 21.7622L70.795 35.1287C70.54 35.2462 70.2656 35.3067 69.9885 35.3064Z" fill="#E57851"/>
<path d="M52.9069 46.506C54.4167 46.506 55.6407 45.181 55.6407 43.5466C55.6407 41.9121 54.4167 40.5871 52.9069 40.5871C51.397 40.5871 50.173 41.9121 50.173 43.5466C50.173 45.181 51.397 46.506 52.9069 46.506Z" fill="#3F3D56"/>
<path opacity="0.2" d="M99.7702 19.8648L70.8946 33.2313C70.6695 33.3355 70.4273 33.3896 70.1824 33.3902C69.9376 33.3908 69.6952 33.3381 69.4696 33.2351L40.2026 19.8687C39.8351 19.7048 39.5284 19.4131 39.3312 19.0395C39.2021 19.2818 39.1221 19.551 39.0966 19.8292C39.071 20.1075 39.1004 20.3885 39.1828 20.6535C39.2652 20.9185 39.3988 21.1615 39.5746 21.3664C39.7504 21.5712 39.9645 21.7333 40.2026 21.8417L69.4696 35.208C69.6952 35.3111 69.9376 35.3638 70.1824 35.3632C70.4273 35.3625 70.6695 35.3085 70.8946 35.2043L99.7702 21.8378C100.007 21.7284 100.22 21.5659 100.395 21.3609C100.569 21.1559 100.702 20.9132 100.783 20.6488C100.865 20.3843 100.894 20.1042 100.868 19.8268C100.842 19.5493 100.762 19.281 100.633 19.0395C100.438 19.4101 100.134 19.7002 99.7702 19.8648Z" fill="black"/>
<path d="M53.1366 43.535C53.2574 43.535 53.3733 43.4831 53.4588 43.3906C53.5442 43.298 53.5922 43.1726 53.5922 43.0418V26.5371L68.6199 20.6107C68.7408 20.6126 68.8574 20.5625 68.9441 20.4714C69.0308 20.3803 69.0806 20.2556 69.0824 20.1248C69.0842 19.994 69.0379 19.8677 68.9537 19.7739C68.8695 19.68 68.7544 19.6262 68.6335 19.6242L53.6058 25.5506C53.4849 25.5476 53.3646 25.5712 53.2524 25.62C53.1401 25.6687 53.0382 25.7417 52.9527 25.8343C52.8663 25.9259 52.7978 26.0352 52.7511 26.1559C52.7044 26.2766 52.6806 26.4062 52.6809 26.5371V43.0418C52.6809 43.1726 52.7289 43.298 52.8144 43.3905C52.8998 43.483 53.0157 43.535 53.1366 43.535Z" fill="#3F3D56"/>
</g>
<defs>
<clipPath id="clip0">
<rect width="339" height="266" fill="white"/>
</clipPath>
</defs>
</svg>
