<svg width="100" height="100" viewBox="0 0 100 100" fill="none" xmlns="http://www.w3.org/2000/svg">
<path d="M50 0C41.1761 0 35.1891 2.10652 31.3848 5.16304C27.5826 8.21957 26.087 12.1522 26.087 15.4217V26.087H47.8261V28.2609H15.4217C11.4478 28.2609 7.41304 29.9848 4.55217 33.6283C1.68913 37.2717 0 42.7065 0 50C0 57.2935 1.68913 62.7283 4.55217 66.3717C7.41304 70.0152 11.4478 71.7391 15.4217 71.7391H26.087V84.5783C26.087 87.8478 27.5826 91.7804 31.387 94.837C35.1913 97.8935 41.1739 100 50 100C58.8239 100 64.8109 97.8935 68.6152 94.837C72.4196 91.7804 73.913 87.8478 73.913 84.5783V73.913H52.1739V71.7391H84.5783C88.5522 71.7391 92.587 70.0152 95.4478 66.3717C98.3109 62.7283 100 57.2935 100 50C100 42.7065 98.3109 37.2717 95.4478 33.6283C92.587 29.9848 88.5522 28.2609 84.5783 28.2609H73.913V15.4217C73.913 12.0674 72.4261 8.12609 68.613 5.09565C64.8043 2.06304 58.8174 0 50 0ZM50 4.34783C58.1435 4.34783 63.0783 6.25 65.8978 8.4913C68.713 10.7348 69.5652 13.3391 69.5652 15.4217V41.3043C69.5652 43.034 68.8781 44.6929 67.655 45.9159C66.432 47.139 64.7731 47.8261 63.0435 47.8261H36.9565C32.4804 47.8261 28.6261 50.587 26.9696 54.4848C26.6741 55.1387 26.4468 55.8213 26.2913 56.5217C26.1498 57.2376 26.0814 57.966 26.087 58.6957V67.3913H15.4217C12.6609 67.3913 10.1043 66.313 8.01739 63.6543C5.92609 61 4.34783 56.6152 4.34783 50C4.34783 43.3848 5.92826 39.0022 8.01739 36.3457C10.1022 33.687 12.6609 32.6087 15.4217 32.6087H52.1739V21.7391H30.4348V15.4217C30.4348 13.4761 31.2761 10.8261 34.1043 8.56087C36.9304 6.2913 41.8652 4.34783 50 4.34783ZM39.1304 10.8696C36.7348 10.8696 34.7826 12.8217 34.7826 15.2174C34.7826 17.613 36.7348 19.5652 39.1304 19.5652C41.5261 19.5652 43.4783 17.613 43.4783 15.2174C43.4783 12.8217 41.5261 10.8696 39.1304 10.8696ZM73.913 32.6087H84.5783C87.3391 32.6087 89.8956 33.687 91.9848 36.3457C94.0717 39 95.6522 43.3848 95.6522 50C95.6522 56.6152 94.0717 60.9978 91.9826 63.6543C89.8957 66.313 87.3391 67.3913 84.5783 67.3913H47.8261V78.2609H69.5652V84.5783C69.5652 86.5239 68.7239 89.1739 65.8957 91.4413C63.0696 93.7065 58.1348 95.6522 50 95.6522C41.8652 95.6522 36.9304 93.7065 34.1022 91.4391C31.2761 89.1739 30.4348 86.5239 30.4348 84.5804V58.6957C30.4405 56.9677 31.1295 55.3122 32.3513 54.0904C33.5731 52.8686 35.2286 52.1796 36.9565 52.1739H63.0435C69.013 52.1739 73.913 47.2739 73.913 41.3043V32.6087ZM60.8696 80.4348C58.4739 80.4348 56.5217 82.387 56.5217 84.7826C56.5217 87.1783 58.4739 89.1304 60.8696 89.1304C63.2652 89.1304 65.2174 87.1783 65.2174 84.7826C65.2174 82.387 63.2652 80.4348 60.8696 80.4348Z" fill="white"/>
</svg>
